# xmcd CD database file
#
# Track frame offsets:
#	182
#	10865
#	21757
#	32890
#	44432
#	57785
#	68757
#	79520
#	92020
#	104900
#	116222
#	128732
#	139632
#	149157
#	160687
#	169335
#
# Disc length: 2398 seconds
#
# Revision: 2
# Processed by: cddbd v1.5.2PL0 Copyright (c) Steve Scherf et al.
# Submitted via: CDex 1.70beta2
#
DISCID=df095c10
DTITLE=Skeeter Davis - Here's The Answer
DYEAR=1964
DGENRE=Country
TTITLE0=Jim Reeves - He'll Have To Go  (J.& A. Allison)
TTITLE1=Skeeter Davis - He'll Have To Stay (C.Green-J.& A. Allison)
TTITLE2=Floyd Cramer - Last Date (Floyd Cramer) 
TTITLE3=Skeeter Davis - My Last Date (With You) (Davis-Bryant-Cramer)
TTITLE4=Ray Peterson - Tell Laura I Love Her (Jeff Barry-Ben Raleigh)
TTITLE5=Skeeter Davis - Tell Tommy I Miss Him (Jeff Barry-Ben Raleigh)
TTITLE6=Hank Locklin - Please Help Me, I'm Falling (Robertson-Blair)
TTITLE7=Skeeter Davis - (I Can't Help You) I'm Falling Too (Robertson-Blair)
TTITLE8=Eddy Arnold - I Really Don't Want To Know (Robertson-James)
TTITLE9=Skeeter Davis - I Really Want You To Know (Robertson-James)
TTITLE10=Don Gibson - Just One Time (Don Gibson)
TTITLE11=Skeeter Davis - I Want To See You Too (Just One Time) (Don Gibson)
TTITLE12=(bonus track) Skeeter Davis and Porter Wagoner - A Litty Bitty Tear (Hank Cochran)
TTITLE13=(bonus track) Skeeter Davis and Porter Wagoner - Have I Told You Lately That I Love You (Scott Wiseman)
TTITLE14=(bonus track)  Skeeter Davis and Bobby Bare - A Dear John Letter 
TTITLE15=(bonus track) Skeeter Davis and Bobby Bare - We'll Sing In The Sunshine
EXTD=YEAR: 1964
EXTT0=
EXTT1=
EXTT2=
EXTT3=
EXTT4=
EXTT5=
EXTT6=
EXTT7=
EXTT8=
EXTT9=
EXTT10=
EXTT11=
EXTT12=
EXTT13=
EXTT14=
EXTT15=
PLAYORDER=
